<svg xmlns="http://www.w3.org/2000/svg">
<symbol width="93" height="91" viewBox="0 0 93 91" id="background">
<path d="M18.4934 25.0876C6.49372 37.5791 -0.00623742 53.072 13.9933 66.0688C25.9938 77.2098 35.4937 84.5607 55.9936 79.563C76.4935 74.5653 84.349 64.2218 84.349 48.5594C84.3489 33.584 73.0913 30.1997 60.9934 17.5914C37.4938 -6.89968 28.2515 14.9295 18.4934 25.0876Z" fill="#92C4FF"/>
<path d="M78.0001 33.5001C78.0001 64.5001 67.0001 70 56.0001 75.5641C45.0002 81.1282 25.5001 88.4999 17.5001 75C9.72013 61.8713 18.475 57.5782 15.0001 46.0001C10.5001 31.0065 16.6704 12.2434 31.5001 14.5001C54.5001 18 78.0001 8.32138 78.0001 33.5001Z" fill="#907AFF"/>
</symbol>
<symbol id="camera" width="42" height="42" viewBox="0 0 42 42">
<g clip-path="url(#clip0_27_911)">
<path d="M31.8066 5.95923C32.2596 5.95923 32.6269 5.59189 32.6269 5.13892C32.6269 4.68594 32.2596 4.3186 31.8066 4.3186H31.8019C31.3489 4.3186 30.9839 4.68594 30.9839 5.13892C30.9839 5.59189 31.3536 5.95923 31.8066 5.95923Z" fill="white"/>
<path d="M36.2338 5.95923C36.6868 5.95923 37.0541 5.59189 37.0541 5.13892C37.0541 4.68594 36.6868 4.3186 36.2338 4.3186H36.2291C35.7762 4.3186 35.4111 4.68594 35.4111 5.13892C35.4111 5.59189 35.7808 5.95923 36.2338 5.95923Z" fill="white"/>
<path d="M27.3793 5.95923C27.8323 5.95923 28.1996 5.59189 28.1996 5.13892C28.1996 4.68594 27.8323 4.3186 27.3793 4.3186H27.3747C26.9217 4.3186 26.5566 4.68594 26.5566 5.13892C26.5566 5.59189 26.9263 5.95923 27.3793 5.95923Z" fill="white"/>
<path d="M5.76367 5.95923H18.0899C18.5429 5.95923 18.9102 5.59189 18.9102 5.13892C18.9102 4.68594 18.5429 4.3186 18.0899 4.3186H5.76367C5.31061 4.3186 4.94336 4.68594 4.94336 5.13892C4.94336 5.59189 5.31061 5.95923 5.76367 5.95923Z" fill="white"/>
<path d="M39.3684 0.00146484H2.63173C1.18059 0.00146484 0 1.18198 0 2.63311V33.0079C0 34.4589 1.18059 35.6395 2.63173 35.6395H9.19702C9.72054 36.4321 10.3281 37.1767 11.0155 37.8641C13.6828 40.5314 17.2287 42.0003 21 42.0003C24.7714 42.0003 28.3173 40.5314 30.9846 37.8641C31.6761 37.1725 32.2807 36.4264 32.7985 35.6395H39.3684C40.8194 35.6395 42 34.4589 42 33.0079V2.63311C42 1.18198 40.8194 0.00146484 39.3684 0.00146484ZM2.63173 1.64209H39.3684C39.9148 1.64209 40.3594 2.0867 40.3594 2.63311V8.63977H1.64062V2.63311C1.64062 2.0867 2.08523 1.64209 2.63173 1.64209ZM39.3684 33.9989H33.7252C36.2451 28.7459 35.3323 22.2451 30.9846 17.8973C28.7742 15.687 25.9721 14.3002 22.8811 13.8869C19.8896 13.4871 16.7953 14.067 14.1679 15.5203C13.7714 15.7397 13.6278 16.2387 13.847 16.6352C14.0663 17.0316 14.5656 17.1752 14.9618 16.956C19.7996 14.2801 25.9113 15.1443 29.8244 19.0574C34.6896 23.9226 34.6896 31.8389 29.8244 36.7039C27.467 39.0613 24.3331 40.3596 21 40.3596C17.6669 40.3596 14.533 39.0613 12.1756 36.7039C8.26301 32.7914 7.39889 26.6807 10.0741 21.8438C10.2934 21.4473 10.1497 20.9482 9.75327 20.7289C9.35698 20.5096 8.85773 20.6532 8.63846 21.0497C7.1852 23.6771 6.60516 26.7711 7.00506 29.7618C7.20448 31.2527 7.63112 32.6762 8.26694 33.9988H2.63173C2.08523 33.9988 1.64062 33.5542 1.64062 33.0078V10.2802H40.3594V33.0078C40.3594 33.5543 39.9148 33.9989 39.3684 33.9989Z" fill="white"/>
<path d="M20.999 32.6065C21.4521 32.6065 21.8193 32.2392 21.8193 31.7862V29.8284C21.8193 29.3754 21.452 29.0081 20.999 29.0081C20.546 29.0081 20.1787 29.3754 20.1787 29.8284V31.7862C20.1787 32.2393 20.546 32.6065 20.999 32.6065Z" fill="white"/>
<path d="M20.9989 37.2826C24.8745 37.2826 28.0276 34.1294 28.0276 30.2538V27.117C28.0276 26.0557 27.2644 25.1697 26.2582 24.9778V22.8269C26.2582 20.4053 24.2879 18.4351 21.8662 18.4351H20.1316C17.7099 18.4351 15.7397 20.4053 15.7397 22.8269V24.9781C14.7333 25.1707 13.9702 26.0563 13.9702 27.117V30.2538C13.9701 34.1295 17.1232 37.2826 20.9989 37.2826ZM17.3803 22.8269C17.3803 21.3099 18.6145 20.0757 20.1316 20.0757H21.8662C23.3833 20.0757 24.6175 21.3099 24.6175 22.8269V24.9387H17.3803V22.8269ZM15.6108 27.117C15.6108 26.8255 15.8581 26.5794 16.1508 26.5794H25.8493C26.1408 26.5794 26.387 26.8255 26.387 27.117V30.2538C26.387 33.2248 23.9699 35.6419 20.9989 35.6419C18.0279 35.6419 15.6108 33.2248 15.6108 30.2538V27.117Z" fill="white"/>
<path d="M11.0156 17.8965C10.6953 18.2169 10.6953 18.7363 11.0156 19.0567C11.1758 19.2168 11.3858 19.297 11.5957 19.297C11.8056 19.297 12.0156 19.2168 12.1757 19.0567L12.178 19.0544C12.4984 18.7341 12.4972 18.2158 12.1769 17.8955C11.8565 17.5751 11.3361 17.5762 11.0156 17.8965Z" fill="white"/>
</g>
<defs>
<clipPath id="clip0_27_911">
<rect width="42" height="42" fill="white"/>
</clipPath>
</defs>
</symbol>
<symbol id="globe" width="55" height="55" viewBox="0 0 55 55">
<path d="M48.783 36.3352C48.9147 35.37 48.9844 34.3856 48.9844 33.3848C48.9844 27.3663 46.5099 21.8613 42.4824 17.9131C42.4568 17.8854 42.4304 17.8594 42.4023 17.8351C39.3374 14.8613 35.3863 12.7846 30.9463 12.057C30.588 10.4498 29.1558 9.24512 27.448 9.24512C25.7384 9.24512 24.305 10.4498 23.9463 12.0565C21.5796 12.443 19.3103 13.2206 17.1904 14.3754C16.6714 14.6582 16.4792 15.3098 16.7612 15.8302C16.9555 16.1881 17.323 16.3912 17.7028 16.3912C17.8753 16.3912 18.0502 16.3492 18.2126 16.2607C20.0707 15.2486 22.0555 14.5579 24.1254 14.2012C24.6609 15.5146 25.9483 16.4428 27.448 16.4428C28.946 16.4428 30.2317 15.515 30.7671 14.2016C33.7267 14.7131 36.4412 15.8918 38.7638 17.5707H34.6754C32.4725 17.5707 30.6803 19.3688 30.6803 21.5789C30.6803 23.7874 32.4725 25.5842 34.6754 25.5842C35.6968 25.5842 36.5272 26.42 36.5272 27.4468C36.5272 28.4741 35.6968 29.3095 34.6754 29.3095H34.0565C31.8552 29.3095 30.0643 31.1063 30.0643 33.3152C30.0643 35.5253 31.8552 37.3233 34.0565 37.3233H46.4449C44.6258 46.1773 36.7991 52.8546 27.448 52.8546C23.188 52.8546 19.2449 51.4682 16.0415 49.123H20.1412C22.3442 49.123 24.1364 47.3253 24.1364 45.1148C24.1364 42.9063 22.3442 41.1096 20.1412 41.1096C19.1198 41.1096 18.2894 40.2741 18.2894 39.2469C18.2894 38.2213 19.1198 37.3871 20.1412 37.3871H20.7572C22.9602 37.3871 24.7523 35.5891 24.7523 33.379C24.7523 31.1684 22.9602 29.3704 20.7572 29.3704H8.45737C9.05743 26.4788 10.3104 23.7697 12.1668 21.3901C12.5306 20.9235 12.4483 20.2491 11.9826 19.8841C11.5172 19.519 10.8446 19.6017 10.4803 20.0687C7.48932 23.9036 5.9082 28.5085 5.9082 33.3848C5.9082 39.3648 8.34114 44.7854 12.2654 48.7025C12.3275 48.7831 12.4001 48.8544 12.4823 48.9148C16.3604 52.6796 21.6388 55.0001 27.448 55.0001C38.2783 55.0001 47.2652 46.9347 48.7632 36.474C48.7729 36.4287 48.7792 36.3826 48.783 36.3352ZM8.13637 31.5163H20.7572C21.7798 31.5163 22.6119 32.3517 22.6119 33.379C22.6119 34.4058 21.7798 35.2416 20.7572 35.2416H20.1412C17.9399 35.2416 16.1489 37.038 16.1489 39.2469C16.1489 41.457 17.9399 43.2551 20.1412 43.2551C21.1638 43.2551 21.9959 44.0892 21.9959 45.1148C21.9959 46.1416 21.1638 46.9775 20.1412 46.9775H13.5733C10.1572 43.4661 8.04867 38.6682 8.04867 33.3848C8.04867 32.7562 8.07888 32.1331 8.13637 31.5163ZM27.448 14.2969C26.649 14.2969 25.9995 13.6444 25.9995 12.8425C25.9995 12.0419 26.649 11.3906 27.448 11.3906C28.2448 11.3906 28.8931 12.0419 28.8931 12.8425C28.8931 13.6444 28.2448 14.2969 27.448 14.2969ZM34.0565 35.1774C33.0352 35.1774 32.2047 34.342 32.2047 33.3148C32.2047 32.2896 33.0352 31.455 34.0565 31.455H34.6754C36.8768 31.455 38.6677 29.657 38.6677 27.4468C38.6677 25.2367 36.8768 23.4387 34.6754 23.4387C33.6528 23.4387 32.8207 22.6045 32.8207 21.5789C32.8207 20.5517 33.6528 19.7162 34.6754 19.7162H41.2559C44.7248 23.2515 46.8439 28.0981 46.8439 33.3848C46.8439 33.9891 46.815 34.587 46.7608 35.1774H34.0565Z" fill="white"/>
<path d="M14.0312 18.9365C14.2368 18.9365 14.4449 18.8773 14.6287 18.7531L14.6467 18.7409C15.1369 18.4099 15.2661 17.7431 14.9354 17.2517C14.6052 16.7604 13.9401 16.6307 13.45 16.9622L13.432 16.9744C12.9418 17.3054 12.8126 17.9726 13.1428 18.4636C13.3497 18.7707 13.6871 18.9365 14.0312 18.9365Z" fill="white"/>
</symbol>
<symbol id="images" width="44" height="44" viewBox="0 0 44 44">
<path d="M16.5839 18.1793C18.2534 18.1793 19.6068 16.8259 19.6068 15.1564C19.6068 13.4869 18.2534 12.1335 16.5839 12.1335C14.9144 12.1335 13.561 13.4869 13.561 15.1564C13.561 16.8259 14.9144 18.1793 16.5839 18.1793Z" fill="white"/>
<path d="M41.3969 26.2824C39.9695 24.9389 38.1641 24.0572 36.1908 23.8053V8.43889C36.1908 6.80149 35.5191 5.33202 34.4695 4.24042C33.3779 3.14881 31.9084 2.51904 30.271 2.51904H5.91985C4.28244 2.51904 2.81298 3.1908 1.72137 4.24042C0.629771 5.33202 0 6.80149 0 8.43889V27.7939V29.5992V33.5038C0 35.1412 0.671756 36.6106 1.72137 37.7023C2.81298 38.7939 4.28244 39.4236 5.91985 39.4236H29.4733C31.0267 40.6832 32.958 41.4809 35.0992 41.4809C37.5763 41.4809 39.8015 40.4732 41.3969 38.8778C42.9924 37.2824 44 35.0572 44 32.5801C44 30.103 42.9924 27.8778 41.3969 26.2824ZM2.22519 8.43889C2.22519 7.43126 2.64504 6.50759 3.31679 5.87782C3.98855 5.20607 4.91221 4.78622 5.91985 4.78622H30.271C31.2786 4.78622 32.2023 5.20607 32.874 5.87782C33.5458 6.54958 33.9656 7.47324 33.9656 8.48088V21.5801L27.7519 15.3664C27.3321 14.9465 26.6183 14.9045 26.1565 15.3664L16.7939 24.771L10.4542 18.3893C10.0344 17.9694 9.32061 17.9274 8.85878 18.3893L2.22519 25.1068V8.43889ZM5.87786 37.2824V37.1984C4.87023 37.1984 3.94656 36.7786 3.27481 36.1068C2.64504 35.4351 2.22519 34.5114 2.22519 33.5038V29.5992V28.2977L9.65649 20.8244L15.9962 27.1641C16.416 27.5839 17.1298 27.5839 17.5916 27.1641L26.9542 17.7595L33.084 23.9313C32.958 23.9732 32.8321 24.0152 32.7061 24.0572C32.5382 24.0992 32.3702 24.1412 32.1603 24.2252C31.9924 24.2671 31.8244 24.3511 31.6565 24.3931C31.5305 24.4351 31.4466 24.4771 31.3206 24.561C31.1527 24.645 31.0267 24.687 30.9008 24.771C30.6908 24.8969 30.4809 25.0229 30.271 25.1488C30.145 25.2328 30.0611 25.2748 29.9351 25.3587C29.8511 25.4007 29.8092 25.4427 29.7252 25.4847C29.3473 25.7366 29.0114 26.0305 28.7176 26.3664C27.1221 27.9618 26.1145 30.187 26.1145 32.6641C26.1145 33.2939 26.1985 33.8816 26.3244 34.5114C26.3664 34.6793 26.4084 34.8053 26.4504 34.9732C26.5763 35.3931 26.7023 35.8129 26.8702 36.2328V36.2748C27.0382 36.6106 27.2061 36.9885 27.416 37.2824H5.87786ZM39.7595 37.2824C38.542 38.5 36.9046 39.2137 35.0573 39.2137C33.2939 39.2137 31.6565 38.5 30.4809 37.3664C30.313 37.1984 30.145 36.9885 29.9771 36.8206C29.8511 36.6946 29.7252 36.5267 29.5992 36.4007C29.4313 36.1908 29.3053 35.9389 29.1794 35.687C29.0954 35.519 29.0114 35.3931 28.9275 35.2252C28.8435 35.0152 28.7595 34.7633 28.7176 34.5114C28.6756 34.3435 28.5916 34.1335 28.5496 33.9656C28.4656 33.5458 28.4237 33.0839 28.4237 32.6221C28.4237 30.7748 29.1794 29.1374 30.355 27.9198C31.5305 26.7022 33.2099 25.9885 35.0573 25.9885C36.9046 25.9885 38.542 26.7442 39.7595 27.9198C40.9771 29.1374 41.6908 30.7748 41.6908 32.6221C41.6908 34.4274 40.9351 36.0648 39.7595 37.2824Z" fill="white"/>
<path d="M35.8552 28.0878C35.7712 28.0039 35.6452 27.9199 35.4773 27.8359C35.3513 27.7939 35.2254 27.752 35.0994 27.752C35.0574 27.752 35.0574 27.752 35.0574 27.752C35.0155 27.752 35.0155 27.752 35.0155 27.752C34.8895 27.752 34.7636 27.7939 34.6376 27.8359C34.5116 27.8779 34.3857 27.9619 34.2597 28.0878L31.6567 30.6909C31.2368 31.1107 31.2368 31.8245 31.6567 32.2863C32.0765 32.7062 32.7903 32.7062 33.2521 32.2863L33.9239 31.6145V36.2329C33.9239 36.8626 34.4277 37.3665 35.0574 37.3665C35.6872 37.3665 36.191 36.8626 36.191 36.2329V31.6145L36.8628 32.2863C37.2826 32.7062 37.9964 32.7062 38.4582 32.2863C38.8781 31.8665 38.8781 31.1527 38.4582 30.6909L35.8552 28.0878Z" fill="white"/>
</symbol>
<symbol width="46" height="46" viewBox="0 0 46 46" id="speedometer">
<g clip-path="url(#clip0_27_975)">
<path d="M21.6523 5.39062C16.4628 5.68858 11.5983 7.7034 7.71777 11.1624L13.4723 16.9166C14.7386 16.467 16.101 16.2214 17.5195 16.2214C18.97 16.2214 20.3619 16.4779 21.6523 16.9471V5.39062Z" fill="white"/>
<path d="M26.884 20.6504L37.7695 10.7188C33.9771 7.53108 29.3112 5.6756 24.3477 5.39062V18.3316C25.2987 18.9816 26.153 19.7632 26.884 20.6504Z" fill="white"/>
<path d="M0 28.3506V29.6982H5.39062V28.3506C5.39062 24.0939 7.59496 20.3429 10.9216 18.1779L5.81212 13.0684C2.05518 17.2829 0 22.6585 0 28.3506Z" fill="white"/>
<path d="M38.853 29.6983H45.9998V28.3506C45.9998 26.3909 45.7552 24.4691 45.2828 22.6189L38.853 29.6983Z" fill="white"/>
<path d="M22.9995 29.7437C21.5595 29.7437 20.2056 30.3045 19.1875 31.3226C17.086 33.4244 17.086 36.8441 19.1875 38.946C20.2056 39.9641 21.5595 40.5249 22.9995 40.5249C24.4391 40.5249 25.7931 39.9641 26.8112 38.946C28.913 36.8441 28.913 33.4244 26.8112 31.3226C25.7931 30.3045 24.4391 29.7437 22.9995 29.7437Z" fill="white"/>
<path d="M40.2668 12.0889L23.8247 27.09C25.6725 27.276 27.3862 28.0856 28.717 29.4164C30.0801 30.7795 30.8525 32.5125 31.0371 34.2954L46 17.8203V12.0889H40.2668Z" fill="white"/>
</g>
<defs>
<clipPath id="clip0_27_975">
<rect width="46" height="46" fill="white"/>
</clipPath>
</defs>
</symbol>
<symbol id="check" width="25" height="21" viewBox="0 0 25 21">
<path d="M2.47754 10.5004L10.3673 19.0005L22.4775 2.00049" stroke="#32C52F" stroke-width="4" stroke-linecap="round" stroke-linejoin="round"/>
</symbol>
<symbol id="under-icon" width="107" height="108" viewBox="0 0 107 108">
<path d="M80.1084 27.0602L80.1084 27.084M26.7028 27.0602C11.9552 41.8078 11.9552 65.7182 26.7028 80.4658C41.4503 95.2133 65.3608 95.2133 80.1084 80.4658C91.6311 68.9431 94.1508 51.8265 87.6673 37.8574" stroke="#82B1FC" stroke-width="7" stroke-linecap="round" stroke-linejoin="round"/>
<path d="M52.9126 24.0153V61.192" stroke="#82B1FC" stroke-width="6" stroke-linecap="round" stroke-linejoin="round"/>
<path d="M40.5565 52.7789L53.0728 65.2951L65.589 52.7789" stroke="#82B1FC" stroke-width="6" stroke-linecap="round" stroke-linejoin="round"/>
</symbol>
<symbol id="unders-icons" width="74" height="74" viewBox="0 0 74 74">
<path d="M74 59.5469C74 61.1435 72.706 62.4375 71.1094 62.4375H62.4375V71.1094C62.4375 72.706 61.1435 74 59.5469 74C57.9503 74 56.6562 72.706 56.6562 71.1094V62.4375H47.9844C46.3878 62.4375 45.0938 61.1435 45.0938 59.5469C45.0938 57.9503 46.3878 56.6562 47.9844 56.6562H56.6562V47.9844C56.6562 46.3878 57.9503 45.0938 59.5469 45.0938C61.1435 45.0938 62.4375 46.3878 62.4375 47.9844V56.6562H71.1094C72.706 56.6562 74 57.9503 74 59.5469ZM50.875 71.1094C50.875 72.706 49.581 74 47.9844 74H8.67188C3.88992 74 0 70.1101 0 65.3281V59.9805C0 54.9919 2.13974 50.2517 5.86989 46.9743C8.8898 44.3203 14.6733 40.3869 23.9707 38.3426C18.8896 34.4284 15.6094 28.2858 15.6094 21.3906C15.6094 9.59608 25.2055 0 37 0C48.7945 0 58.3906 9.59608 58.3906 21.3906C58.3906 33.1852 48.7945 42.7812 37 42.7812C21.1157 42.7812 12.6064 48.7505 9.68585 51.3171C7.20454 53.4975 5.78125 56.6546 5.78125 59.9805V65.3281C5.78125 66.9219 7.07808 68.2188 8.67188 68.2188H47.9844C49.581 68.2188 50.875 69.5128 50.875 71.1094ZM37 37C45.6069 37 52.6094 29.9976 52.6094 21.3906C52.6094 12.7837 45.6069 5.78125 37 5.78125C28.3931 5.78125 21.3906 12.7837 21.3906 21.3906C21.3906 29.9976 28.3931 37 37 37Z" fill="#82B1FC"/>
</symbol>
<symbol width="8" height="11" viewBox="0 0 8 11" id="table-symb">
<path d="M4 11L0 6H8L4 11Z" fill="#7D90B2"/>
<path d="M4 0L0 5H8L4 0Z" fill="#7D90B2"/>
</symbol>
<symbol id="table-gallery" width="24" height="24" viewBox="0 0 24 24">
<g opacity="0.6" clip-path="url(#clip0_59_3298)">
<path d="M20 5H4V19L13.292 9.706C13.4795 9.51853 13.7338 9.41321 13.999 9.41321C14.2642 9.41321 14.5185 9.51853 14.706 9.706L20 15.01V5ZM2 3.993C2.00183 3.73038 2.1069 3.47902 2.29251 3.29322C2.47813 3.10742 2.72938 3.00209 2.992 3H21.008C21.556 3 22 3.445 22 3.993V20.007C21.9982 20.2696 21.8931 20.521 21.7075 20.7068C21.5219 20.8926 21.2706 20.9979 21.008 21H2.992C2.72881 20.9997 2.4765 20.895 2.29049 20.7088C2.10448 20.5226 2 20.2702 2 20.007V3.993ZM8 11C7.46957 11 6.96086 10.7893 6.58579 10.4142C6.21071 10.0391 6 9.53043 6 9C6 8.46957 6.21071 7.96086 6.58579 7.58579C6.96086 7.21071 7.46957 7 8 7C8.53043 7 9.03914 7.21071 9.41421 7.58579C9.78929 7.96086 10 8.46957 10 9C10 9.53043 9.78929 10.0391 9.41421 10.4142C9.03914 10.7893 8.53043 11 8 11Z" fill="#03053D"/>
</g>
<defs>
<clipPath id="clip0_59_3298">
<rect width="24" height="24" fill="white"/>
</clipPath>
</defs>
</symbol>
<symbol id="eye" width="23" height="17" viewBox="0 0 23 17">
<path d="M11.5 0.65918C6.27273 0.65918 1.80865 3.91051 0 8.50009C1.80865 13.0896 6.27273 16.341 11.5 16.341C16.7325 16.341 21.1914 13.0896 23 8.50009C21.1914 3.91051 16.7325 0.65918 11.5 0.65918ZM11.5 13.7273C8.61457 13.7273 6.27273 11.3855 6.27273 8.50004C6.27273 5.61459 8.61457 3.2728 11.5 3.2728C14.3855 3.2728 16.7273 5.61464 16.7273 8.50009C16.7273 11.3856 14.3855 13.7273 11.5 13.7273Z" fill="#7D90B2"/>
</symbol>
<symbol id="dots" width="20" height="5" viewBox="0 0 20 5">
<path d="M12.1951 2.14286C12.1951 3.33333 11.2195 4.28571 10 4.28571C8.78049 4.28571 7.80488 3.33333 7.80488 2.14286C7.80488 0.952381 8.78049 0 10 0C11.2195 0 12.1951 0.952381 12.1951 2.14286ZM17.8049 0C16.5854 0 15.6098 0.952381 15.6098 2.14286C15.6098 3.33333 16.5854 4.28571 17.8049 4.28571C19.0244 4.28571 20 3.33333 20 2.14286C20 0.952381 19.0244 0 17.8049 0ZM2.19512 0C0.97561 0 0 0.952381 0 2.14286C0 3.33333 0.97561 4.28571 2.19512 4.28571C3.41463 4.28571 4.39024 3.33333 4.39024 2.14286C4.39024 0.952381 3.41463 0 2.19512 0Z" fill="#606F89"/>
</symbol>
<symbol id="table-symbol" width="6" height="10" viewBox="0 0 6 10">
<path d="M5.79971 1.10636C6.42812 0.51287 5.43313 -0.426818 4.80472 0.216126L0.196378 4.51891C-0.0654595 4.7662 -0.0654595 5.21131 0.196378 5.4586L4.80472 9.81084C5.43313 10.4043 6.42812 9.46464 5.79971 8.87115L1.71504 5.01348L5.79971 1.10636Z" fill="#606F89"/>
</symbol>
<symbol id="polygon" width="8" height="5" viewBox="0 0 8 5">
<path d="M4 5L0 0H8L4 5Z" fill="#606F89"/>
</symbol>
</svg>